<svg xmlns="http://www.w3.org/2000/svg" width="149" height="38"><g fill="none" fillRule="evenodd"><path fill="#FF3B30" fillRule="nonzero" d="M31.741 10.837c.194-.263.462-.614.785-1.031a180.147 180.147 0 0 1 1.241-1.584.96.96 0 0 0-.054-1.257L30.986 4.09a.952.952 0 0 0-1.317-.063l-.126.11a263.52 263.52 0 0 1-1.362 1.176c-.404.345-.715.608-.959.811-1.355-.964-2.992-1.635-4.87-2.052a83.341 83.341 0 0 1-.134-1.252 254.36 254.36 0 0 1-.175-1.784l-.016-.167a.955.955 0 0 0-.95-.868h-3.895a.955.955 0 0 0-.946.835l-.021.166a346.983 346.983 0 0 1-.233 1.763l-.022.162c-.058.426-.109.788-.15 1.07-1.854.355-3.579 1.056-5.049 2.068a40.373 40.373 0 0 1-.903-.737A113.103 113.103 0 0 1 8.33 4.025a.952.952 0 0 0-1.3.048L4.302 6.82a.96.96 0 0 0-.099 1.235l.098.137A334.863 334.863 0 0 1 5.346 9.66c.316.449.56.799.746 1.067-1.07 1.434-1.827 3.3-2.064 5.148l-.163.014a79.13 79.13 0 0 1-.997.074 145.817 145.817 0 0 1-1.966.12.956.956 0 0 0-.903.957v3.922c0 .49.37.901.855.952a66.43 66.43 0 0 1 .623.068 106.24 106.24 0 0 1 2.06.25c.216.03.406.058.568.084.252 1.626.96 3.175 2.116 4.918-.198.266-.47.617-.797 1.032a138.306 138.306 0 0 1-1.313 1.633.96.96 0 0 0 .078 1.3l2.726 2.614a.952.952 0 0 0 1.252.058 72.839 72.839 0 0 1 .477-.376c.36-.283.722-.566 1.065-.83.514-.393.872-.661 1.139-.851 1.918 1.184 3.406 1.854 5.008 2.104l.017.176c.028.288.058.634.088 1.027a127.084 127.084 0 0 1 .138 1.982.956.956 0 0 0 .953.898h3.765a.955.955 0 0 0 .949-.86 61.627 61.627 0 0 1 .066-.623 109.242 109.242 0 0 1 .26-2.145c.03-.207.057-.388.082-.541 1.854-.416 3.567-1.133 5.06-2.131a36.41 36.41 0 0 1 1.07.868 103.614 103.614 0 0 1 1.495 1.275.952.952 0 0 0 1.317-.064l2.596-2.745a.96.96 0 0 0 .014-1.304 56.793 56.793 0 0 1-.402-.446c-.301-.338-.603-.68-.884-1.004l-.09-.104a34.51 34.51 0 0 1-.757-.9c1.02-1.424 1.722-3.035 2.107-4.868a45.907 45.907 0 0 1 1.3-.163 97.223 97.223 0 0 1 2-.2.956.956 0 0 0 .87-.953v-4.184a.956.956 0 0 0-.893-.955 82.852 82.852 0 0 1-.618-.043 132.08 132.08 0 0 1-1.361-.103 63.278 63.278 0 0 1-1.299-.12c-.49-1.857-1.094-3.348-1.959-4.85zM29.733 32.46l1.317-.064a64.219 64.219 0 0 0-.692-.597l-.625.661zM8.38 5.425l-1.3.048a68.474 68.474 0 0 0 .675.581l.625-.63zM34.792 20.34c-.364.04-.692.08-.976.117-.337.044-.608.086-.81.126a2.91 2.91 0 0 0-.332.08 1.25 1.25 0 0 0-.231.098 1.01 1.01 0 0 0-.218.16.956.956 0 0 0-.289.544c-.337 2.027-1.085 3.716-2.254 5.17a.941.941 0 0 0-.202.775c.017.103.045.187.081.27.038.085.083.163.139.25.076.117.18.258.315.428.22.28.524.643.894 1.071l.093.107c.23.266.474.543.72.82L30.358 31.8c-.282-.24-.562-.478-.832-.703l-.101-.085c-.44-.365-.81-.666-1.096-.884a6.844 6.844 0 0 0-.432-.31 1.818 1.818 0 0 0-.238-.132 1.08 1.08 0 0 0-.247-.08.923.923 0 0 0-.768.172c-1.53 1.135-3.377 1.912-5.416 2.293a.946.946 0 0 0-.55.313c-.064.072-.11.142-.148.215a1.34 1.34 0 0 0-.092.231c-.03.1-.058.217-.087.36-.045.23-.094.537-.147.916a96.663 96.663 0 0 0-.243 1.979h-2.015c-.026-.38-.054-.758-.081-1.114a58.267 58.267 0 0 0-.092-1.064c-.03-.304-.057-.548-.084-.728a3.06 3.06 0 0 0-.054-.291 1.23 1.23 0 0 0-.073-.214c-.04-.088-.04-.088-.145-.233-.176-.2-.176-.2-.672-.348-1.646-.123-3.146-.79-5.374-2.211a.902.902 0 0 0-.749-.125 1.11 1.11 0 0 0-.213.074c-.07.032-.14.07-.22.12-.113.07-.255.165-.43.29-.29.206-.67.49-1.119.834l-.09.069c-.295.227-.605.468-.914.71l-1.49-1.43c.242-.301.482-.601.71-.888l.064-.081c.357-.452.651-.833.865-1.122a9.44 9.44 0 0 0 .3-.425c.05-.077.089-.143.122-.21.032-.066.058-.13.08-.208a.893.893 0 0 0-.14-.822c-1.37-1.963-2.097-3.555-2.218-5.196a.941.941 0 0 0-.33-.661 1.014 1.014 0 0 0-.228-.152 1.379 1.379 0 0 0-.231-.088 4 4 0 0 0-.372-.085 20.539 20.539 0 0 0-.971-.151 103.941 103.941 0 0 0-1.888-.232v-2.16c.372-.023.74-.046 1.09-.07.387-.027.733-.052 1.026-.077.307-.026.552-.05.732-.073.113-.014.204-.029.282-.046a1.26 1.26 0 0 0 .198-.057c.083-.033.083-.033.23-.124.218-.162.218-.162.399-.74.086-1.91.929-3.984 2.119-5.331.387-.44.351-.589.156-1.035a1.238 1.238 0 0 0-.061-.119 3.335 3.335 0 0 0-.094-.153c-.063-.098-.152-.23-.267-.398a174.428 174.428 0 0 0-1.494-2.124l1.531-1.542c.269.23.537.456.794.672l.087.073c.423.353.78.644 1.054.855.165.128.3.227.41.3.078.051.148.093.221.128.072.035.145.063.235.083.26.06.53.043.815-.18 1.485-1.156 3.354-1.916 5.396-2.209.55-.08.62-.203.772-.644a1.28 1.28 0 0 0 .035-.123c.01-.046.021-.098.033-.162.018-.103.04-.244.068-.423.046-.309.105-.73.175-1.239l.022-.163.147-1.107h2.19a244.427 244.427 0 0 0 .139 1.38c.05.487.095.888.13 1.183.021.17.04.305.055.405.01.065.02.118.03.167.011.047.023.09.041.14.131.365.236.537.733.628 2.159.4 3.942 1.136 5.275 2.249.433.36.661.306 1.04.122.052-.026.094-.05.138-.08a2.3 2.3 0 0 0 .157-.113c.094-.072.22-.173.377-.303.268-.22.626-.523 1.053-.889.303-.26.577-.495.853-.734l1.528 1.613c-.238.302-.473.603-.695.89a64.44 64.44 0 0 0-.873 1.146 11.3 11.3 0 0 0-.284.4c-.045.066-.08.123-.11.178a1.154 1.154 0 0 0-.076.163c-.104.28-.134.503.08.852 1.029 1.672 1.67 3.25 2.199 5.435.068.28.216.45.397.574.128.077.128.077.206.109.067.026.129.044.199.06.084.02.184.036.306.054.2.028.468.058.803.09a109.854 109.854 0 0 0 2.051.167v2.419c-.4.04-.795.08-1.17.121z"/><path fill="#FF3B30" fillRule="nonzero" d="M19.401 9.913c-5.26 0-9.523 4.292-9.523 9.585 0 5.293 4.263 9.585 9.523 9.585s9.522-4.292 9.522-9.585c0-5.293-4.262-9.585-9.522-9.585zm0 1.915c4.204 0 7.614 3.433 7.614 7.67 0 4.236-3.41 7.67-7.614 7.67-4.205 0-7.614-3.433-7.614-7.67s3.41-7.67 7.614-7.67z"/><path fill="#FF273A" d="M63.54 22.016c0 1.31-.225 2.493-.673 3.547-.449 1.054-1.061 1.95-1.836 2.686a8.07 8.07 0 0 1-2.754 1.704c-1.06.4-2.213.6-3.457.6-1.245 0-2.397-.2-3.458-.6a8.237 8.237 0 0 1-2.769-1.704 7.67 7.67 0 0 1-1.836-2.686c-.438-1.054-.658-2.237-.658-3.547V8.261h3.856v13.602c0 .634.081 1.264.244 1.888.164.625.434 1.182.811 1.674.378.49.877.89 1.5 1.197.622.307 1.392.46 2.31.46.918 0 1.688-.153 2.31-.46.622-.307 1.122-.706 1.499-1.197.377-.492.648-1.05.81-1.674a7.438 7.438 0 0 0 .246-1.888V8.26h3.855v13.755zm5.96-6.755v2.058h.092a5.25 5.25 0 0 1 .72-.875 4.749 4.749 0 0 1 1.085-.799 6.662 6.662 0 0 1 3.274-.814 6.847 6.847 0 0 1 5.141 2.242 7.423 7.423 0 0 1 1.468 2.456c.347.942.52 1.955.52 3.04a9.098 9.098 0 0 1-.504 3.055 7.499 7.499 0 0 1-1.439 2.487 6.922 6.922 0 0 1-2.264 1.689c-.887.42-1.892.63-3.014.63-1.04 0-1.993-.216-2.86-.645-.867-.43-1.535-1.014-2.005-1.75h-.06v9.334h-3.672V15.26H69.5zm8.568 7.308a5.76 5.76 0 0 0-.26-1.704 4.769 4.769 0 0 0-.78-1.52 3.921 3.921 0 0 0-1.316-1.09c-.53-.276-1.153-.414-1.867-.414-.673 0-1.275.143-1.805.43-.53.286-.984.655-1.362 1.105a4.72 4.72 0 0 0-.856 1.535 5.34 5.34 0 0 0-.291 1.72c0 .573.097 1.14.29 1.704.194.563.48 1.07.857 1.52.378.45.832.813 1.362 1.09.53.276 1.132.414 1.805.414.714 0 1.336-.143 1.867-.43.53-.286.968-.655 1.315-1.105.347-.45.607-.962.78-1.535a5.9 5.9 0 0 0 .26-1.72zm5.501-14.308h3.855v9.395h.092l9.057-9.395h5.201L91.647 18.3l10.8 11.7h-5.415l-9.516-10.9h-.092V30H83.57V8.26zm28.358 12.896c0-.471-.067-.921-.2-1.351a3.095 3.095 0 0 0-.627-1.136 3.063 3.063 0 0 0-1.086-.783c-.438-.195-.953-.292-1.545-.292-1.101 0-2.035.333-2.8.998-.764.665-1.188 1.52-1.27 2.564h7.528zm3.671 1.658v.491c0 .164-.01.328-.03.491H104.4a3.659 3.659 0 0 0 1.346 2.595 4.64 4.64 0 0 0 1.316.752c.49.184 1 .276 1.53.276.917 0 1.693-.168 2.325-.506a4.36 4.36 0 0 0 1.56-1.397l2.448 1.965c-1.448 1.965-3.55 2.947-6.303 2.947-1.142 0-2.193-.179-3.151-.537a7.432 7.432 0 0 1-2.494-1.52 6.834 6.834 0 0 1-1.652-2.41c-.398-.952-.597-2.032-.597-3.24 0-1.187.199-2.266.597-3.239a7.376 7.376 0 0 1 1.637-2.487 7.32 7.32 0 0 1 2.463-1.596 8.217 8.217 0 0 1 3.075-.568c1.02 0 1.963.168 2.83.506a6.14 6.14 0 0 1 2.249 1.505c.632.665 1.127 1.494 1.484 2.487.357.993.535 2.154.535 3.485zm11.927-1.658c0-.471-.066-.921-.199-1.351a3.095 3.095 0 0 0-.627-1.136 3.063 3.063 0 0 0-1.086-.783c-.439-.195-.954-.292-1.545-.292-1.102 0-2.035.333-2.8.998-.765.665-1.188 1.52-1.27 2.564h7.527zm3.672 1.658v.491c0 .164-.01.328-.03.491h-11.169a3.659 3.659 0 0 0 1.347 2.595 4.64 4.64 0 0 0 1.315.752c.49.184 1 .276 1.53.276.918 0 1.693-.168 2.325-.506a4.36 4.36 0 0 0 1.56-1.397l2.449 1.965c-1.449 1.965-3.55 2.947-6.303 2.947-1.143 0-2.193-.179-3.152-.537a7.432 7.432 0 0 1-2.493-1.52 6.85 6.85 0 0 1-1.653-2.41c-.398-.952-.596-2.032-.596-3.24 0-1.187.198-2.266.596-3.239a7.376 7.376 0 0 1 1.637-2.487 7.32 7.32 0 0 1 2.463-1.596 8.217 8.217 0 0 1 3.075-.568c1.02 0 1.964.168 2.83.506.867.338 1.617.84 2.25 1.505.632.665 1.126 1.494 1.483 2.487.357.993.536 2.154.536 3.485zm5.104-7.554v2.058h.091a5.3 5.3 0 0 1 .72-.875 4.749 4.749 0 0 1 1.086-.799 6.662 6.662 0 0 1 3.274-.814c1.04 0 1.999.2 2.876.6a6.853 6.853 0 0 1 2.264 1.642 7.423 7.423 0 0 1 1.469 2.456c.346.942.52 1.955.52 3.04a9.098 9.098 0 0 1-.505 3.055 7.499 7.499 0 0 1-1.438 2.487 6.922 6.922 0 0 1-2.264 1.689c-.888.42-1.892.63-3.014.63-1.04 0-1.994-.216-2.861-.645-.867-.43-1.535-1.014-2.004-1.75h-.061v9.334h-3.672V15.26h3.519zm8.567 7.308a5.76 5.76 0 0 0-.26-1.704 4.769 4.769 0 0 0-.78-1.52 3.921 3.921 0 0 0-1.316-1.09c-.53-.276-1.153-.414-1.867-.414-.673 0-1.274.143-1.805.43a4.62 4.62 0 0 0-1.361 1.105 4.72 4.72 0 0 0-.857 1.535 5.34 5.34 0 0 0-.29 1.72c0 .573.096 1.14.29 1.704.194.563.48 1.07.857 1.52.377.45.83.813 1.361 1.09.53.276 1.132.414 1.805.414.714 0 1.336-.143 1.867-.43.53-.286.969-.655 1.315-1.105.347-.45.607-.962.78-1.535a5.9 5.9 0 0 0 .26-1.72z" opacity=".9"/></g></svg>